<svg width="1200" height="900" viewBox="0 0 1200 900" fill="none" xmlns="http://www.w3.org/2000/svg">
  <rect x="120" y="120" width="640" height="660" rx="56" stroke="#F4EBDD" stroke-width="3" />
  <rect x="200" y="210" width="480" height="90" rx="24" fill="#F4EBDD" fill-opacity="0.12" stroke="#F4EBDD" stroke-width="2" />
  <rect x="200" y="330" width="420" height="90" rx="24" fill="#F4EBDD" fill-opacity="0.12" stroke="#F4EBDD" stroke-width="2" />
  <rect x="200" y="450" width="380" height="90" rx="24" fill="#F4EBDD" fill-opacity="0.12" stroke="#F4EBDD" stroke-width="2" />
  <rect x="620" y="240" width="460" height="520" rx="40" stroke="#F4EBDD" stroke-width="3" />
  <rect x="680" y="300" width="320" height="120" rx="24" fill="#F4EBDD" fill-opacity="0.12" stroke="#F4EBDD" stroke-width="2" />
  <circle cx="880" cy="520" r="70" stroke="#F97316" stroke-width="10" />
  <circle cx="880" cy="520" r="34" fill="#F4EBDD" />
  <path d="M760 640 C820 600 940 600 1000 640" stroke="#F4EBDD" stroke-width="6" stroke-linecap="round" />
  <line x1="760" y1="680" x2="1000" y2="680" stroke="#F4EBDD" stroke-width="4" stroke-linecap="round" stroke-dasharray="10 10" />
  <rect x="240" y="600" width="200" height="14" rx="7" fill="#F97316" />
  <rect x="240" y="630" width="160" height="12" rx="6" fill="#F4EBDD" fill-opacity="0.6" />
</svg>
